<svg width="45" height="45" viewBox="0 0 45 45" fill="none" xmlns="http://www.w3.org/2000/svg">
<path d="M45 6.3H38.7V0H35.55V6.3H29.25V9.45H35.55V15.75H38.7V9.45H45V6.3Z" fill="#F7F1DE"/>
<path d="M32.625 34.875L33.2696 37.1336L35.5478 36.5625L33.9141 38.25L35.5478 39.9375L33.2696 39.3664L32.625 41.625L31.9804 39.3664L29.7022 39.9375L31.3359 38.25L29.7022 36.5625L31.9804 37.1336L32.625 34.875Z" fill="#E6E6E6"/>
<path d="M6.75 34.875L7.39457 37.1336L9.67284 36.5625L8.03914 38.25L9.67284 39.9375L7.39457 39.3664L6.75 41.625L6.10543 39.3664L3.82716 39.9375L5.46086 38.25L3.82716 36.5625L6.10543 37.1336L6.75 34.875Z" fill="#E6E6E6"/>
<path d="M35.8125 20.25V32.7174C34.8479 32.1232 33.7474 31.8065 32.625 31.8C31.3641 31.8 30.1316 32.1871 29.0832 32.9123C28.0349 33.6375 27.2178 34.6683 26.7353 35.8743C26.2528 37.0803 26.1265 38.4073 26.3725 39.6876C26.6185 40.9679 27.2256 42.1439 28.1172 43.0669C29.0088 43.9899 30.1447 44.6185 31.3813 44.8732C32.6179 45.1278 33.8997 44.9971 35.0646 44.4976C36.2295 43.9981 37.2251 43.1521 37.9256 42.0668C38.6261 40.9814 39 39.7054 39 38.4V20.25H35.8125ZM32.625 41.7C31.9946 41.7 31.3783 41.5065 30.8541 41.1438C30.3299 40.7812 29.9214 40.2659 29.6801 39.6629C29.4389 39.0599 29.3758 38.3963 29.4987 37.7562C29.6217 37.1161 29.9253 36.5281 30.3711 36.0665C30.8169 35.605 31.3848 35.2907 32.0032 35.1634C32.6215 35.0361 33.2624 35.1014 33.8448 35.3512C34.4272 35.601 34.9251 36.0239 35.2753 36.5666C35.6256 37.1093 35.8125 37.7473 35.8125 38.4C35.8112 39.2748 35.475 40.1134 34.8775 40.732C34.28 41.3506 33.47 41.6987 32.625 41.7Z" fill="#F7F1DE"/>
<path d="M24.75 6H13.2C12.3251 6.00086 11.4862 6.34355 10.8675 6.95285C10.2488 7.56216 9.90088 8.38831 9.9 9.25V32.9035C8.90127 32.3184 7.76205 32.0065 6.6 32C5.29465 32 4.0186 32.3812 2.93324 33.0954C1.84787 33.8097 1.00194 34.8248 0.502398 36.0126C0.00285965 37.2003 -0.127842 38.5072 0.12682 39.7681C0.381483 41.029 1.01007 42.1871 1.9331 43.0962C2.85612 44.0052 4.03213 44.6243 5.31241 44.8751C6.59268 45.1259 7.91972 44.9972 9.12571 44.5052C10.3317 44.0132 11.3625 43.1801 12.0877 42.1112C12.8129 41.0423 13.2 39.7856 13.2 38.5V9.25H24.75V6ZM6.6 41.75C5.94732 41.75 5.3093 41.5594 4.76662 41.2023C4.22394 40.8452 3.80097 40.3376 3.5512 39.7437C3.30143 39.1499 3.23608 38.4964 3.36341 37.866C3.49074 37.2355 3.80504 36.6564 4.26655 36.2019C4.72806 35.7474 5.31607 35.4378 5.9562 35.3124C6.59634 35.187 7.25986 35.2514 7.86286 35.4974C8.46585 35.7434 8.98124 36.1599 9.34385 36.6944C9.70646 37.2289 9.9 37.8572 9.9 38.5C9.89913 39.3617 9.55117 40.1878 8.93249 40.7971C8.31381 41.4065 7.47495 41.7491 6.6 41.75Z" fill="#F7F1DE"/>
</svg>
