<svg width="49" height="51" viewBox="0 0 49 51" fill="none" xmlns="http://www.w3.org/2000/svg">
<g filter="url(#filter0_d)">
<g filter="url(#filter1_i)">
<path d="M28.3334 12.1778C28.7419 11.7693 29.227 11.4452 29.7608 11.2241C30.2946 11.003 30.8667 10.8892 31.4445 10.8892C32.0223 10.8892 32.5944 11.003 33.1282 11.2241C33.662 11.4452 34.1471 11.7693 34.5556 12.1778C34.9642 12.5864 35.2883 13.0714 35.5094 13.6052C35.7305 14.139 35.8443 14.7112 35.8443 15.2889C35.8443 15.8667 35.7305 16.4389 35.5094 16.9727C35.2883 17.5065 34.9642 17.9915 34.5556 18.4001L13.5556 39.4001L5 41.7334L7.33334 33.1779L28.3334 12.1778Z" fill="#FFE4AD"/>
</g>
<path d="M28.3334 12.1778C28.7419 11.7693 29.227 11.4452 29.7608 11.2241C30.2946 11.003 30.8667 10.8892 31.4445 10.8892C32.0223 10.8892 32.5944 11.003 33.1282 11.2241C33.662 11.4452 34.1471 11.7693 34.5556 12.1778C34.9642 12.5864 35.2883 13.0714 35.5094 13.6052C35.7305 14.139 35.8443 14.7112 35.8443 15.2889C35.8443 15.8667 35.7305 16.4389 35.5094 16.9727C35.2883 17.5065 34.9642 17.9915 34.5556 18.4001L13.5556 39.4001L5 41.7334L7.33334 33.1779L28.3334 12.1778Z" stroke="#1E7B99" stroke-width="2" stroke-linecap="round" stroke-linejoin="round"/>
<g filter="url(#filter2_i)">
<path d="M32.8269 2.92705C33.1262 2.00574 34.4296 2.00574 34.729 2.92705L36.522 8.44536C36.6558 8.85739 37.0398 9.13635 37.473 9.13635H43.2753C44.2441 9.13635 44.6468 10.376 43.8631 10.9454L39.169 14.3559C38.8185 14.6105 38.6718 15.0619 38.8057 15.4739L40.5987 20.9922C40.898 21.9135 39.8436 22.6796 39.0599 22.1102L34.3657 18.6997C34.0152 18.4451 33.5406 18.4451 33.1901 18.6997L28.496 22.1103C27.7123 22.6797 26.6578 21.9135 26.9571 20.9922L28.7501 15.4739C28.884 15.0619 28.7373 14.6105 28.3869 14.3559L23.6927 10.9454C22.909 10.376 23.3118 9.13635 24.2805 9.13635H30.0828C30.516 9.13635 30.9 8.85739 31.0338 8.44536L32.8269 2.92705Z" fill="#FFE4AD"/>
</g>
</g>
<defs>
<filter id="filter0_d" x="0" y="2.23608" width="48.2775" height="48.4974" filterUnits="userSpaceOnUse" color-interpolation-filters="sRGB">
<feFlood flood-opacity="0" result="BackgroundImageFix"/>
<feColorMatrix in="SourceAlpha" type="matrix" values="0 0 0 0 0 0 0 0 0 0 0 0 0 0 0 0 0 0 127 0" result="hardAlpha"/>
<feOffset dy="4"/>
<feGaussianBlur stdDeviation="2"/>
<feColorMatrix type="matrix" values="0 0 0 0 0 0 0 0 0 0 0 0 0 0 0 0 0 0 0.25 0"/>
<feBlend mode="normal" in2="BackgroundImageFix" result="effect1_dropShadow"/>
<feBlend mode="normal" in="SourceGraphic" in2="effect1_dropShadow" result="shape"/>
</filter>
<filter id="filter1_i" x="4" y="9.88916" width="32.8443" height="36.8443" filterUnits="userSpaceOnUse" color-interpolation-filters="sRGB">
<feFlood flood-opacity="0" result="BackgroundImageFix"/>
<feBlend mode="normal" in="SourceGraphic" in2="BackgroundImageFix" result="shape"/>
<feColorMatrix in="SourceAlpha" type="matrix" values="0 0 0 0 0 0 0 0 0 0 0 0 0 0 0 0 0 0 127 0" result="hardAlpha"/>
<feOffset dy="4"/>
<feGaussianBlur stdDeviation="2"/>
<feComposite in2="hardAlpha" operator="arithmetic" k2="-1" k3="1"/>
<feColorMatrix type="matrix" values="0 0 0 0 0 0 0 0 0 0 0 0 0 0 0 0 0 0 0.25 0"/>
<feBlend mode="normal" in2="shape" result="effect1_innerShadow"/>
</filter>
<filter id="filter2_i" x="23.2788" y="1.23608" width="20.9987" height="21.0697" filterUnits="userSpaceOnUse" color-interpolation-filters="sRGB">
<feFlood flood-opacity="0" result="BackgroundImageFix"/>
<feBlend mode="normal" in="SourceGraphic" in2="BackgroundImageFix" result="shape"/>
<feColorMatrix in="SourceAlpha" type="matrix" values="0 0 0 0 0 0 0 0 0 0 0 0 0 0 0 0 0 0 127 0" result="hardAlpha"/>
<feOffset dy="-1"/>
<feGaussianBlur stdDeviation="2"/>
<feComposite in2="hardAlpha" operator="arithmetic" k2="-1" k3="1"/>
<feColorMatrix type="matrix" values="0 0 0 0 0 0 0 0 0 0 0 0 0 0 0 0 0 0 0.25 0"/>
<feBlend mode="normal" in2="shape" result="effect1_innerShadow"/>
</filter>
</defs>
</svg>
