<svg width="43" height="43" viewBox="0 0 43 43" fill="none" xmlns="http://www.w3.org/2000/svg">
<g filter="url(#filter0_di)">
<path fill-rule="evenodd" clip-rule="evenodd" d="M38.1819 7.93187L31.0681 0.818125C30.74 0.49 30.3375 0.249375 29.9 0.118125V0H5.40001C4.62563 0 4.00001 0.625625 4.00001 1.4V33.6C4.00001 34.3744 4.62563 35 5.40001 35H37.6C38.3744 35 39 34.3744 39 33.6V9.90938C39 9.16562 38.7069 8.45687 38.1819 7.93187ZM15.9 3.15H27.1V7.7H15.9V3.15ZM35.85 31.85H7.15001V3.15H13.1V9.1C13.1 9.87437 13.7256 10.5 14.5 10.5H28.5C29.2744 10.5 29.9 9.87437 29.9 9.1V4.10375L35.85 10.0537V31.85Z" fill="#312669"/>
<path d="M19.6077 15.0902C20.2064 13.2476 22.8132 13.2476 23.4119 15.0902L23.7347 16.0835C24.0024 16.9076 24.7704 17.4655 25.6368 17.4655H26.6813C28.6187 17.4655 29.4243 19.9447 27.8568 21.0835L27.0119 21.6975C26.3109 22.2067 26.0176 23.1095 26.2853 23.9335L26.6081 24.9269C27.2068 26.7695 25.0978 28.3017 23.5304 27.1629L22.6854 26.549C21.9844 26.0397 21.0352 26.0397 20.3342 26.549L19.4893 27.1629C17.9218 28.3017 15.8129 26.7695 16.4116 24.9269L16.7343 23.9335C17.0021 23.1095 16.7088 22.2067 16.0078 21.6975L15.1628 21.0835C13.5954 19.9447 14.4009 17.4655 16.3384 17.4655H17.3828C18.2493 17.4655 19.0172 16.9076 19.2849 16.0835L19.6077 15.0902Z" fill="#312669"/>
</g>
<defs>
<filter id="filter0_di" x="0" y="0" width="43" height="43" filterUnits="userSpaceOnUse" color-interpolation-filters="sRGB">
<feFlood flood-opacity="0" result="BackgroundImageFix"/>
<feColorMatrix in="SourceAlpha" type="matrix" values="0 0 0 0 0 0 0 0 0 0 0 0 0 0 0 0 0 0 127 0" result="hardAlpha"/>
<feOffset dy="4"/>
<feGaussianBlur stdDeviation="2"/>
<feColorMatrix type="matrix" values="0 0 0 0 0 0 0 0 0 0 0 0 0 0 0 0 0 0 0.25 0"/>
<feBlend mode="normal" in2="BackgroundImageFix" result="effect1_dropShadow"/>
<feBlend mode="normal" in="SourceGraphic" in2="effect1_dropShadow" result="shape"/>
<feColorMatrix in="SourceAlpha" type="matrix" values="0 0 0 0 0 0 0 0 0 0 0 0 0 0 0 0 0 0 127 0" result="hardAlpha"/>
<feOffset dx="3" dy="4"/>
<feGaussianBlur stdDeviation="2"/>
<feComposite in2="hardAlpha" operator="arithmetic" k2="-1" k3="1"/>
<feColorMatrix type="matrix" values="0 0 0 0 0 0 0 0 0 0 0 0 0 0 0 0 0 0 0.25 0"/>
<feBlend mode="normal" in2="shape" result="effect2_innerShadow"/>
</filter>
</defs>
</svg>
