<svg width="877" height="845" viewBox="0 0 877 845" fill="none" xmlns="http://www.w3.org/2000/svg">
<path d="M340.9 164.179C361.4 108.179 440.6 108.179 461.1 164.179L492.494 249.941C501.728 275.166 525.732 291.94 552.594 291.94H636.37C700.198 291.94 724.697 375.134 671.056 409.726L616.922 444.636C591.777 460.852 581.222 492.326 591.508 520.422L615.18 585.09C636.282 642.737 571.985 694.146 520.395 660.876L435.686 606.249C414.567 592.63 387.433 592.63 366.314 606.249L281.605 660.876C230.015 694.146 165.718 642.737 186.82 585.09L210.492 520.422C220.778 492.326 210.223 460.852 185.078 444.636L130.944 409.726C77.3031 375.134 101.802 291.94 165.629 291.94H249.406C276.268 291.94 300.272 275.166 309.506 249.941L340.9 164.179Z" fill="#FFE4AD"/>
<path d="M409.406 252.305H452.789V300.469L409.406 252.305ZM363.492 280.57H363.07C363.07 270.914 365.695 263.789 370.945 259.195C376.195 254.602 384.281 252.305 395.203 252.305L452.789 322.195C452.789 331.477 450.281 338.109 445.266 342.094C440.391 345.984 432.422 347.93 421.359 347.93L363.492 280.57ZM363.281 299.555L405.047 348H363.281V299.555Z" fill="#4B3F72"/>
<path d="M264.077 417.939C264.077 416.636 264.326 415.413 264.824 414.27C265.322 413.127 265.996 412.131 266.845 411.282C267.709 410.417 268.713 409.736 269.855 409.238C270.998 408.74 272.221 408.491 273.525 408.491H287.983V414.797H273.525C273.085 414.797 272.675 414.878 272.294 415.039C271.914 415.2 271.577 415.427 271.284 415.72C271.005 415.999 270.786 416.328 270.625 416.709C270.463 417.09 270.383 417.5 270.383 417.939C270.383 418.379 270.463 418.796 270.625 419.192C270.786 419.573 271.005 419.91 271.284 420.203C271.577 420.481 271.914 420.701 272.294 420.862C272.675 421.023 273.085 421.104 273.525 421.104H279.831C281.135 421.104 282.358 421.353 283.5 421.851C284.658 422.334 285.661 423.008 286.511 423.872C287.375 424.722 288.049 425.725 288.532 426.882C289.03 428.025 289.279 429.248 289.279 430.552C289.279 431.855 289.03 433.079 288.532 434.221C288.049 435.364 287.375 436.367 286.511 437.231C285.661 438.081 284.658 438.755 283.5 439.253C282.358 439.751 281.135 440 279.831 440H265.834V433.694H279.831C280.271 433.694 280.681 433.613 281.062 433.452C281.442 433.291 281.772 433.071 282.05 432.793C282.343 432.5 282.57 432.163 282.731 431.782C282.893 431.401 282.973 430.991 282.973 430.552C282.973 430.112 282.893 429.702 282.731 429.321C282.57 428.94 282.343 428.611 282.05 428.333C281.772 428.04 281.442 427.812 281.062 427.651C280.681 427.49 280.271 427.41 279.831 427.41H273.525C272.221 427.41 270.998 427.161 269.855 426.663C268.713 426.165 267.709 425.491 266.845 424.641C265.996 423.777 265.322 422.773 264.824 421.631C264.326 420.474 264.077 419.243 264.077 417.939ZM304.199 440C302.749 440 301.386 439.729 300.112 439.187C298.837 438.63 297.717 437.876 296.75 436.924C295.798 435.957 295.043 434.836 294.487 433.562C293.945 432.288 293.674 430.925 293.674 429.475V422.488H290.751V416.511H293.674V407.107H299.65V416.511H308.747V422.488H299.65V429.475C299.65 430.105 299.768 430.698 300.002 431.255C300.236 431.797 300.559 432.273 300.969 432.683C301.379 433.093 301.862 433.423 302.419 433.672C302.976 433.906 303.569 434.023 304.199 434.023H308.747V440H304.199ZM321.491 434.243C321.726 434.316 321.96 434.368 322.194 434.397C322.429 434.412 322.663 434.419 322.897 434.419C323.483 434.419 324.047 434.338 324.589 434.177C325.131 434.016 325.637 433.789 326.105 433.496C326.589 433.188 327.014 432.822 327.38 432.397C327.761 431.958 328.068 431.475 328.303 430.947L332.697 435.364C332.141 436.155 331.496 436.865 330.764 437.495C330.046 438.125 329.262 438.66 328.413 439.099C327.578 439.539 326.691 439.868 325.754 440.088C324.831 440.322 323.879 440.439 322.897 440.439C321.242 440.439 319.682 440.132 318.217 439.517C316.767 438.901 315.493 438.044 314.394 436.946C313.31 435.847 312.453 434.543 311.823 433.035C311.193 431.511 310.878 429.841 310.878 428.025C310.878 426.165 311.193 424.465 311.823 422.927C312.453 421.389 313.31 420.078 314.394 418.994C315.493 417.91 316.767 417.068 318.217 416.467C319.682 415.867 321.242 415.566 322.897 415.566C323.879 415.566 324.838 415.684 325.776 415.918C326.713 416.152 327.6 416.489 328.435 416.929C329.284 417.368 330.075 417.91 330.808 418.555C331.54 419.185 332.185 419.895 332.741 420.686L321.491 434.243ZM324.567 421.873C324.289 421.77 324.011 421.704 323.732 421.675C323.469 421.646 323.19 421.631 322.897 421.631C322.077 421.631 321.301 421.785 320.568 422.092C319.851 422.385 319.221 422.81 318.679 423.367C318.151 423.923 317.734 424.597 317.426 425.388C317.119 426.165 316.965 427.043 316.965 428.025C316.965 428.245 316.972 428.494 316.987 428.772C317.016 429.05 317.053 429.336 317.097 429.629C317.155 429.907 317.221 430.178 317.294 430.442C317.368 430.706 317.463 430.94 317.58 431.145L324.567 421.873ZM341.816 440H335.773V407.107H341.816V440ZM352.451 440H346.408V407.107H352.451V440ZM379.829 440H378.378L376.049 436.77C375.478 437.283 374.87 437.766 374.226 438.22C373.596 438.66 372.929 439.048 372.226 439.385C371.523 439.707 370.798 439.963 370.051 440.154C369.318 440.344 368.571 440.439 367.81 440.439C366.154 440.439 364.594 440.161 363.129 439.604C361.679 439.048 360.405 438.242 359.306 437.188C358.222 436.118 357.365 434.814 356.735 433.276C356.105 431.738 355.791 429.988 355.791 428.025C355.791 426.194 356.105 424.517 356.735 422.993C357.365 421.455 358.222 420.137 359.306 419.038C360.405 417.939 361.679 417.09 363.129 416.489C364.594 415.874 366.154 415.566 367.81 415.566C368.571 415.566 369.326 415.662 370.073 415.852C370.82 416.042 371.545 416.306 372.248 416.643C372.951 416.98 373.618 417.375 374.248 417.83C374.892 418.284 375.493 418.774 376.049 419.302L378.378 416.511H379.829V440ZM373.786 428.025C373.786 427.205 373.625 426.414 373.303 425.652C372.995 424.875 372.57 424.194 372.028 423.608C371.486 423.008 370.849 422.532 370.117 422.18C369.399 421.814 368.63 421.631 367.81 421.631C366.989 421.631 366.213 421.77 365.48 422.048C364.763 422.327 364.133 422.737 363.591 423.279C363.063 423.821 362.646 424.495 362.338 425.3C362.031 426.091 361.877 427 361.877 428.025C361.877 429.05 362.031 429.966 362.338 430.771C362.646 431.562 363.063 432.229 363.591 432.771C364.133 433.313 364.763 433.723 365.48 434.001C366.213 434.28 366.989 434.419 367.81 434.419C368.63 434.419 369.399 434.243 370.117 433.892C370.849 433.525 371.486 433.049 372.028 432.463C372.57 431.863 372.995 431.182 373.303 430.42C373.625 429.644 373.786 428.845 373.786 428.025ZM390.419 440H384.421V416.467H385.871L387.849 419.258C388.815 418.379 389.914 417.705 391.145 417.236C392.375 416.753 393.649 416.511 394.968 416.511H400.263V422.488H394.968C394.338 422.488 393.745 422.605 393.188 422.839C392.631 423.074 392.148 423.396 391.738 423.806C391.328 424.216 391.005 424.7 390.771 425.256C390.537 425.813 390.419 426.406 390.419 427.036V440ZM447.57 430.991C447.57 432.295 447.321 433.525 446.823 434.683C446.34 435.825 445.666 436.829 444.802 437.693C443.952 438.542 442.949 439.216 441.792 439.714C440.649 440.198 439.426 440.439 438.122 440.439C436.95 440.439 435.822 440.234 434.738 439.824C433.669 439.414 432.702 438.813 431.838 438.022C430.974 438.813 430 439.414 428.916 439.824C427.832 440.234 426.704 440.439 425.532 440.439C424.228 440.439 422.998 440.198 421.84 439.714C420.698 439.216 419.694 438.542 418.83 437.693C417.98 436.829 417.307 435.825 416.809 434.683C416.325 433.525 416.083 432.295 416.083 430.991V408.491H422.39V430.991C422.39 431.431 422.47 431.848 422.631 432.244C422.792 432.625 423.012 432.961 423.291 433.254C423.583 433.533 423.92 433.752 424.301 433.914C424.682 434.075 425.092 434.155 425.532 434.155C425.971 434.155 426.381 434.075 426.762 433.914C427.143 433.752 427.473 433.533 427.751 433.254C428.044 432.961 428.271 432.625 428.432 432.244C428.593 431.848 428.674 431.431 428.674 430.991V408.491H434.98V430.991C434.98 431.431 435.061 431.848 435.222 432.244C435.383 432.625 435.603 432.961 435.881 433.254C436.174 433.533 436.511 433.752 436.892 433.914C437.272 434.075 437.683 434.155 438.122 434.155C438.562 434.155 438.972 434.075 439.353 433.914C439.733 433.752 440.063 433.533 440.341 433.254C440.634 432.961 440.861 432.625 441.022 432.244C441.198 431.848 441.286 431.431 441.286 430.991V408.491H447.57V430.991ZM475.058 440H473.608L471.279 436.77C470.708 437.283 470.1 437.766 469.455 438.22C468.825 438.66 468.159 439.048 467.456 439.385C466.752 439.707 466.027 439.963 465.28 440.154C464.548 440.344 463.801 440.439 463.039 440.439C461.384 440.439 459.824 440.161 458.359 439.604C456.909 439.048 455.634 438.242 454.536 437.188C453.452 436.118 452.595 434.814 451.965 433.276C451.335 431.738 451.02 429.988 451.02 428.025C451.02 426.194 451.335 424.517 451.965 422.993C452.595 421.455 453.452 420.137 454.536 419.038C455.634 417.939 456.909 417.09 458.359 416.489C459.824 415.874 461.384 415.566 463.039 415.566C463.801 415.566 464.555 415.662 465.302 415.852C466.049 416.042 466.774 416.306 467.478 416.643C468.181 416.98 468.847 417.375 469.477 417.83C470.122 418.284 470.722 418.774 471.279 419.302L473.608 416.511H475.058V440ZM469.016 428.025C469.016 427.205 468.854 426.414 468.532 425.652C468.225 424.875 467.8 424.194 467.258 423.608C466.716 423.008 466.079 422.532 465.346 422.18C464.628 421.814 463.859 421.631 463.039 421.631C462.219 421.631 461.442 421.77 460.71 422.048C459.992 422.327 459.362 422.737 458.82 423.279C458.293 423.821 457.875 424.495 457.568 425.3C457.26 426.091 457.106 427 457.106 428.025C457.106 429.05 457.26 429.966 457.568 430.771C457.875 431.562 458.293 432.229 458.82 432.771C459.362 433.313 459.992 433.723 460.71 434.001C461.442 434.28 462.219 434.419 463.039 434.419C463.859 434.419 464.628 434.243 465.346 433.892C466.079 433.525 466.716 433.049 467.258 432.463C467.8 431.863 468.225 431.182 468.532 430.42C468.854 429.644 469.016 428.845 469.016 428.025ZM486.33 440L477.365 416.467H484.199L489.34 431.145L494.46 416.467H501.315L492.351 440H486.33ZM512.258 434.243C512.492 434.316 512.727 434.368 512.961 434.397C513.195 434.412 513.43 434.419 513.664 434.419C514.25 434.419 514.814 434.338 515.356 434.177C515.898 434.016 516.403 433.789 516.872 433.496C517.355 433.188 517.78 432.822 518.146 432.397C518.527 431.958 518.835 431.475 519.069 430.947L523.464 435.364C522.907 436.155 522.263 436.865 521.53 437.495C520.812 438.125 520.029 438.66 519.179 439.099C518.344 439.539 517.458 439.868 516.521 440.088C515.598 440.322 514.646 440.439 513.664 440.439C512.009 440.439 510.449 440.132 508.984 439.517C507.534 438.901 506.259 438.044 505.161 436.946C504.077 435.847 503.22 434.543 502.59 433.035C501.96 431.511 501.645 429.841 501.645 428.025C501.645 426.165 501.96 424.465 502.59 422.927C503.22 421.389 504.077 420.078 505.161 418.994C506.259 417.91 507.534 417.068 508.984 416.467C510.449 415.867 512.009 415.566 513.664 415.566C514.646 415.566 515.605 415.684 516.542 415.918C517.48 416.152 518.366 416.489 519.201 416.929C520.051 417.368 520.842 417.91 521.574 418.555C522.307 419.185 522.951 419.895 523.508 420.686L512.258 434.243ZM515.334 421.873C515.056 421.77 514.777 421.704 514.499 421.675C514.235 421.646 513.957 421.631 513.664 421.631C512.844 421.631 512.067 421.785 511.335 422.092C510.617 422.385 509.987 422.81 509.445 423.367C508.918 423.923 508.5 424.597 508.193 425.388C507.885 426.165 507.731 427.043 507.731 428.025C507.731 428.245 507.739 428.494 507.753 428.772C507.783 429.05 507.819 429.336 507.863 429.629C507.922 429.907 507.988 430.178 508.061 430.442C508.134 430.706 508.229 430.94 508.347 431.145L515.334 421.873ZM539.46 440H525.749V434.023H539.46C539.87 434.023 540.222 433.877 540.515 433.584C540.808 433.291 540.954 432.939 540.954 432.529C540.954 432.104 540.808 431.826 540.515 431.694C540.222 431.562 539.87 431.497 539.46 431.497H533.22C532.18 431.497 531.206 431.299 530.297 430.903C529.389 430.508 528.598 429.973 527.924 429.299C527.25 428.611 526.716 427.812 526.32 426.904C525.939 425.996 525.749 425.022 525.749 423.982C525.749 422.942 525.939 421.968 526.32 421.06C526.716 420.151 527.25 419.36 527.924 418.687C528.598 418.013 529.389 417.485 530.297 417.104C531.206 416.709 532.18 416.511 533.22 416.511H545.371V422.488H533.22C532.81 422.488 532.458 422.634 532.165 422.927C531.872 423.22 531.726 423.572 531.726 423.982C531.726 424.407 531.872 424.773 532.165 425.081C532.458 425.374 532.81 425.52 533.22 425.52H539.46C540.485 425.52 541.452 425.696 542.36 426.047C543.269 426.384 544.06 426.86 544.733 427.476C545.407 428.091 545.942 428.831 546.337 429.695C546.733 430.559 546.931 431.504 546.931 432.529C546.931 433.569 546.733 434.543 546.337 435.452C545.942 436.345 545.407 437.136 544.733 437.825C544.06 438.499 543.269 439.033 542.36 439.429C541.452 439.81 540.485 440 539.46 440Z" fill="#4B3F72"/>
<path d="M302.16 505.76C302.187 505.867 302.2 505.96 302.2 506.04C302.2 506.147 302.2 506.227 302.2 506.28C302.2 506.547 302.133 506.733 302 506.84C301.893 506.947 301.667 507 301.32 507C301 507 300.787 506.947 300.68 506.84C300.52 506.68 300.307 506.267 300.04 505.6C299.773 504.933 299.493 504.147 299.2 503.24C298.907 502.333 298.613 501.36 298.32 500.32C298.053 499.28 297.813 498.293 297.6 497.36C297.307 497.493 296.907 497.64 296.4 497.8C295.893 497.933 295.373 498.067 294.84 498.2C294.227 498.333 293.587 498.48 292.92 498.64C292.68 499.787 292.493 500.773 292.36 501.6C292.253 502.4 292.147 503.067 292.04 503.6C291.96 504.107 291.84 504.48 291.68 504.72C291.547 504.987 291.32 505.12 291 505.12C290.787 505.12 290.6 505 290.44 504.76C290.28 504.52 290.2 504.16 290.2 503.68C290.2 503.44 290.267 502.88 290.4 502C290.533 501.12 290.68 500.147 290.84 499.08C291 497.987 291.16 496.907 291.32 495.84C291.48 494.773 291.587 493.933 291.64 493.32C291.667 493 291.747 492.48 291.88 491.76C292.04 491.04 292.2 490.307 292.36 489.56C292.52 488.787 292.68 488.093 292.84 487.48C293 486.867 293.107 486.52 293.16 486.44C293.587 485.453 293.853 484.44 293.96 483.4C294.093 482.36 294.187 481.413 294.24 480.56C294.32 479.68 294.44 478.973 294.6 478.44C294.76 477.88 295.093 477.6 295.6 477.6C295.733 477.6 295.867 477.707 296 477.92C296.16 478.133 296.307 478.387 296.44 478.68C296.573 478.973 296.68 479.267 296.76 479.56C296.84 479.827 296.893 480.04 296.92 480.2C296.947 480.36 296.973 480.68 297 481.16C297.053 481.64 297.093 482.173 297.12 482.76C297.173 483.32 297.213 483.88 297.24 484.44C297.293 484.973 297.333 485.387 297.36 485.68C297.44 486.56 297.56 487.547 297.72 488.64C297.907 489.733 298.093 490.76 298.28 491.72C298.467 492.68 298.64 493.493 298.8 494.16C298.96 494.8 299.08 495.12 299.16 495.12C299.267 495.12 299.4 495.093 299.56 495.04C299.747 494.987 299.92 494.96 300.08 494.96C300.293 494.96 300.4 495.067 300.4 495.28C300.4 495.493 300.347 495.667 300.24 495.8C300.133 495.933 300.013 496.053 299.88 496.16C299.773 496.267 299.667 496.36 299.56 496.44C299.48 496.52 299.44 496.613 299.44 496.72C299.44 496.933 299.56 497.48 299.8 498.36L300.44 500.72C300.493 500.933 300.613 501.293 300.8 501.8C300.987 502.307 301.173 502.84 301.36 503.4C301.573 503.933 301.76 504.427 301.92 504.88C302.08 505.36 302.16 505.653 302.16 505.76ZM293.28 496.6C293.44 496.6 293.733 496.56 294.16 496.48C294.587 496.373 295.027 496.253 295.48 496.12C295.933 495.987 296.333 495.853 296.68 495.72C297.027 495.587 297.2 495.48 297.2 495.4C297.2 495.32 297.147 495.12 297.04 494.8C296.96 494.453 296.853 494.027 296.72 493.52C296.613 492.987 296.493 492.387 296.36 491.72C296.227 491.053 296.107 490.347 296 489.6C295.947 489.12 295.88 488.467 295.8 487.64C295.72 486.813 295.64 486 295.56 485.2C295.48 484.373 295.413 483.667 295.36 483.08C295.307 482.493 295.28 482.2 295.28 482.2C295.28 482.2 295.24 482.4 295.16 482.8C295.08 483.173 294.987 483.6 294.88 484.08C294.8 484.533 294.72 484.973 294.64 485.4C294.587 485.8 294.56 486.027 294.56 486.08V487.2C294.56 487.253 294.52 487.493 294.44 487.92C294.387 488.32 294.307 488.84 294.2 489.48C294.093 490.093 293.973 490.773 293.84 491.52C293.733 492.24 293.627 492.933 293.52 493.6C293.413 494.267 293.32 494.867 293.24 495.4C293.187 495.907 293.16 496.253 293.16 496.44C293.16 496.547 293.2 496.6 293.28 496.6ZM331.413 498.72C331.413 499.173 331.253 499.573 330.933 499.92C330.639 500.24 330.253 500.52 329.773 500.76C329.319 500.973 328.813 501.147 328.253 501.28C327.693 501.413 327.159 501.52 326.653 501.6C326.146 501.653 325.693 501.693 325.293 501.72C324.919 501.72 324.679 501.72 324.573 501.72C323.986 501.72 323.533 501.627 323.213 501.44C322.893 501.253 322.733 500.92 322.733 500.44C322.733 500.28 322.746 500.147 322.773 500.04C322.799 499.907 322.906 499.84 323.093 499.84C323.173 499.84 323.306 499.867 323.493 499.92C323.679 499.947 323.826 499.96 323.933 499.96C324.039 499.96 324.373 499.947 324.933 499.92C325.519 499.867 326.133 499.787 326.773 499.68C327.439 499.573 328.026 499.427 328.533 499.24C329.066 499.027 329.333 498.76 329.333 498.44C329.333 498.387 329.053 498.227 328.493 497.96C327.959 497.667 327.146 497.187 326.053 496.52C325.199 495.987 324.599 495.453 324.253 494.92C323.906 494.36 323.733 493.613 323.733 492.68C323.733 492.093 323.853 491.613 324.093 491.24C324.359 490.867 324.706 490.573 325.133 490.36C325.586 490.147 326.093 490 326.653 489.92C327.239 489.813 327.853 489.76 328.493 489.76C328.546 489.76 328.706 489.787 328.973 489.84C329.266 489.893 329.573 489.987 329.893 490.12C330.213 490.227 330.493 490.373 330.733 490.56C330.999 490.72 331.133 490.907 331.133 491.12C331.133 491.173 331.079 491.253 330.973 491.36C330.893 491.467 330.746 491.667 330.533 491.96C330.453 491.933 330.306 491.893 330.093 491.84C329.906 491.787 329.679 491.733 329.413 491.68C329.173 491.6 328.919 491.547 328.653 491.52C328.386 491.467 328.173 491.44 328.013 491.44C327.319 491.44 326.759 491.573 326.333 491.84C325.906 492.08 325.693 492.56 325.693 493.28C325.693 493.627 325.826 493.947 326.092 494.24C326.386 494.533 326.746 494.813 327.173 495.08C327.599 495.32 328.053 495.573 328.533 495.84C329.039 496.08 329.506 496.347 329.933 496.64C330.359 496.933 330.706 497.253 330.973 497.6C331.266 497.92 331.413 498.293 331.413 498.72ZM347.674 492.44C347.674 493.133 347.474 493.8 347.074 494.44C346.701 495.08 346.234 495.68 345.674 496.24C345.114 496.773 344.501 497.28 343.834 497.76C343.168 498.213 342.554 498.613 341.994 498.96C341.461 499.333 341.021 499.64 340.674 499.88C340.328 500.12 340.154 500.307 340.154 500.44C340.154 500.787 340.194 501.28 340.274 501.92C340.354 502.533 340.448 503.213 340.554 503.96C340.688 504.68 340.808 505.427 340.914 506.2C341.048 506.973 341.141 507.68 341.194 508.32C341.194 508.347 341.208 508.467 341.234 508.68C341.288 508.893 341.341 509.133 341.394 509.4C341.474 509.667 341.528 509.907 341.554 510.12C341.608 510.36 341.634 510.507 341.634 510.56C341.634 510.747 341.621 510.947 341.594 511.16C341.594 511.4 341.554 511.613 341.474 511.8C341.421 512.013 341.328 512.187 341.194 512.32C341.061 512.453 340.888 512.52 340.674 512.52C340.381 512.52 340.168 512.387 340.034 512.12C339.901 511.88 339.834 511.64 339.834 511.4C339.834 511.347 339.834 511.293 339.834 511.24C339.861 511.187 339.874 511.12 339.874 511.04C339.874 510.747 339.768 509.96 339.554 508.68C339.341 507.4 339.101 505.867 338.834 504.08C338.568 502.32 338.328 500.427 338.114 498.4C337.901 496.347 337.794 494.413 337.794 492.6C337.794 492.467 337.808 492.32 337.834 492.16C337.861 491.973 337.874 491.813 337.874 491.68C337.608 491.707 337.208 491.827 336.674 492.04C336.168 492.253 335.661 492.52 335.154 492.84C334.648 493.133 334.194 493.453 333.794 493.8C333.421 494.12 333.234 494.413 333.234 494.68H332.954C332.874 494.68 332.781 494.627 332.674 494.52C332.541 494.413 332.434 494.293 332.354 494.16C332.248 494.027 332.154 493.893 332.074 493.76C331.994 493.627 331.954 493.533 331.954 493.48C331.954 492.92 332.288 492.4 332.954 491.92C333.621 491.413 334.448 490.973 335.434 490.6C336.448 490.2 337.554 489.893 338.754 489.68C339.954 489.44 341.088 489.32 342.154 489.32C343.194 489.32 344.061 489.44 344.754 489.68C345.474 489.92 346.048 490.213 346.474 490.56C346.901 490.88 347.208 491.213 347.394 491.56C347.581 491.907 347.674 492.2 347.674 492.44ZM345.714 492.32C345.714 492.053 345.381 491.787 344.714 491.52C344.048 491.227 343.261 491.08 342.354 491.08C341.554 491.08 340.968 491.107 340.594 491.16C340.221 491.213 339.968 491.267 339.834 491.32C339.781 491.747 339.741 492.253 339.714 492.84C339.688 493.427 339.674 494.027 339.674 494.64C339.674 495.28 339.688 495.907 339.714 496.52C339.768 497.107 339.821 497.6 339.874 498C340.248 497.76 340.754 497.44 341.394 497.04C342.061 496.613 342.714 496.147 343.354 495.64C343.994 495.107 344.541 494.56 344.994 494C345.474 493.413 345.714 492.853 345.714 492.32ZM368.913 495.68C368.913 496.16 368.686 496.76 368.233 497.48C367.806 498.173 367.219 498.853 366.473 499.52C365.726 500.187 364.859 500.76 363.873 501.24C362.886 501.693 361.859 501.92 360.793 501.92C360.313 501.92 359.806 501.84 359.273 501.68C358.739 501.52 358.219 501.293 357.713 501C357.206 500.68 356.753 500.307 356.353 499.88C355.953 499.427 355.659 498.92 355.473 498.36C355.313 498.52 355.113 498.787 354.873 499.16C354.659 499.533 354.419 499.92 354.153 500.32C353.886 500.693 353.593 501.027 353.273 501.32C352.953 501.587 352.619 501.72 352.273 501.72C351.926 501.72 351.633 501.547 351.393 501.2C351.179 500.827 351.006 500.427 350.873 500C350.739 499.547 350.646 499.12 350.593 498.72C350.539 498.32 350.513 498.093 350.513 498.04C350.513 497.72 350.606 497.12 350.793 496.24C350.979 495.333 351.259 494.4 351.633 493.44C352.006 492.48 352.473 491.627 353.033 490.88C353.619 490.133 354.299 489.76 355.073 489.76C355.366 489.76 355.553 489.893 355.633 490.16C355.739 490.4 355.793 490.64 355.793 490.88V492.08C355.926 492.187 356.059 492.267 356.193 492.32C356.353 492.347 356.486 492.4 356.593 492.48C356.726 492.533 356.819 492.627 356.873 492.76C356.953 492.893 356.993 493.107 356.993 493.4C356.993 493.587 356.979 493.76 356.953 493.92C356.926 494.053 356.913 494.187 356.913 494.32C356.913 495.013 356.966 495.693 357.073 496.36C357.179 497.027 357.393 497.627 357.713 498.16C358.033 498.667 358.473 499.093 359.033 499.44C359.593 499.76 360.339 499.92 361.273 499.92C362.446 499.92 363.433 499.68 364.233 499.2C365.059 498.693 365.739 498.147 366.273 497.56C366.833 496.947 367.273 496.4 367.593 495.92C367.913 495.413 368.179 495.16 368.393 495.16C368.739 495.16 368.913 495.333 368.913 495.68ZM354.873 493.92C354.873 493.813 354.846 493.72 354.793 493.64C354.739 493.533 354.713 493.44 354.713 493.36C354.713 493.253 354.739 493.16 354.793 493.08C354.846 493 354.873 492.893 354.873 492.76C354.873 492.68 354.846 492.627 354.793 492.6C354.739 492.547 354.713 492.493 354.713 492.44C354.473 492.493 354.219 492.72 353.953 493.12C353.713 493.52 353.473 493.987 353.233 494.52C353.019 495.053 352.846 495.6 352.713 496.16C352.579 496.693 352.513 497.133 352.513 497.48C352.513 497.667 352.566 497.973 352.673 498.4C352.779 498.827 352.899 499.107 353.033 499.24C353.486 498.307 353.899 497.4 354.273 496.52C354.673 495.64 354.873 494.773 354.873 493.92ZM380.925 496.72C380.925 496.987 380.885 497.267 380.805 497.56C380.725 497.827 380.645 498.053 380.565 498.24C380.511 498.32 380.258 498.6 379.805 499.08C379.378 499.533 378.831 500.013 378.165 500.52C377.525 501.027 376.791 501.493 375.965 501.92C375.165 502.32 374.391 502.52 373.645 502.52C373.191 502.52 372.725 502.44 372.245 502.28C371.791 502.12 371.365 501.867 370.965 501.52C370.565 501.147 370.231 500.693 369.965 500.16C369.725 499.627 369.605 498.973 369.605 498.2C369.605 496.92 369.818 495.76 370.245 494.72C370.671 493.68 371.098 492.853 371.525 492.24C371.711 491.947 371.951 491.653 372.245 491.36C372.565 491.04 372.871 490.76 373.165 490.52C373.458 490.253 373.725 490.04 373.965 489.88C374.231 489.72 374.418 489.64 374.525 489.64C374.765 489.64 374.978 489.707 375.165 489.84C375.378 489.973 375.485 490.107 375.485 490.24C375.485 490.453 375.418 490.64 375.285 490.8C375.178 490.933 375.018 491.093 374.805 491.28C374.591 491.44 374.338 491.667 374.045 491.96C373.751 492.227 373.445 492.587 373.125 493.04C372.485 493.92 372.005 494.827 371.685 495.76C371.391 496.667 371.245 497.467 371.245 498.16C371.245 498.853 371.498 499.413 372.005 499.84C372.538 500.24 373.085 500.44 373.645 500.44C374.658 500.44 375.551 500.213 376.325 499.76C377.125 499.307 377.805 498.8 378.365 498.24C378.925 497.68 379.378 497.173 379.725 496.72C380.071 496.267 380.325 496.04 380.485 496.04C380.778 496.04 380.925 496.267 380.925 496.72ZM395.251 499.8C395.278 499.853 395.291 499.933 395.291 500.04C395.291 500.2 395.171 500.44 394.931 500.76C394.851 500.867 394.678 501.04 394.411 501.28C394.145 501.52 393.785 501.76 393.331 502C392.878 502.24 392.318 502.453 391.651 502.64C391.011 502.827 390.251 502.92 389.371 502.92C388.758 502.92 388.158 502.787 387.571 502.52C386.985 502.227 386.465 501.813 386.011 501.28C385.558 500.72 385.185 500.04 384.891 499.24C384.598 498.413 384.451 497.453 384.451 496.36C384.451 495.32 384.585 494.347 384.851 493.44C385.118 492.533 385.451 491.733 385.851 491.04C386.278 490.347 386.745 489.8 387.251 489.4C387.758 489 388.251 488.8 388.731 488.8C389.158 488.8 389.585 488.893 390.011 489.08C390.465 489.24 390.865 489.453 391.211 489.72C391.585 489.987 391.878 490.293 392.091 490.64C392.305 490.96 392.411 491.293 392.411 491.64C392.411 492.04 392.225 492.453 391.851 492.88C391.505 493.307 391.078 493.707 390.571 494.08C390.065 494.427 389.558 494.72 389.051 494.96C388.545 495.173 388.145 495.28 387.851 495.28C387.691 495.28 387.545 495.213 387.411 495.08C387.305 494.92 387.251 494.733 387.251 494.52C387.251 494.147 387.411 493.853 387.731 493.64C388.078 493.427 388.451 493.24 388.851 493.08C389.251 492.893 389.611 492.68 389.931 492.44C390.278 492.2 390.451 491.867 390.451 491.44C390.451 491.387 390.385 491.253 390.251 491.04C390.118 490.827 389.758 490.72 389.171 490.72C388.905 490.72 388.598 490.88 388.251 491.2C387.905 491.493 387.571 491.907 387.251 492.44C386.931 492.947 386.665 493.56 386.451 494.28C386.238 494.973 386.131 495.733 386.131 496.56C386.131 497.253 386.251 497.88 386.491 498.44C386.758 499 387.091 499.48 387.491 499.88C387.891 500.253 388.358 500.547 388.891 500.76C389.425 500.973 389.971 501.08 390.531 501.08C390.931 501.08 391.358 501 391.811 500.84C392.291 500.653 392.731 500.467 393.131 500.28C393.558 500.067 393.918 499.88 394.211 499.72C394.531 499.533 394.731 499.44 394.811 499.44C394.891 499.44 394.971 499.48 395.051 499.56C395.158 499.64 395.225 499.72 395.251 499.8ZM421.799 495.36C421.799 495.947 421.719 496.507 421.559 497.04C421.399 497.573 421.186 498.04 420.919 498.44C420.652 498.84 420.332 499.16 419.959 499.4C419.612 499.613 419.226 499.72 418.799 499.72C418.052 499.72 417.466 499.507 417.039 499.08C416.612 498.653 416.279 498.16 416.039 497.6C415.826 497.04 415.679 496.48 415.599 495.92C415.546 495.333 415.519 494.893 415.519 494.6C415.519 494.12 415.586 493.587 415.719 493C415.879 492.387 416.079 491.827 416.319 491.32C416.586 490.813 416.879 490.387 417.199 490.04C417.519 489.693 417.852 489.52 418.199 489.52C418.279 489.52 418.399 489.547 418.559 489.6C418.746 489.653 418.932 489.733 419.119 489.84C419.306 489.947 419.466 490.08 419.599 490.24C419.759 490.4 419.866 490.587 419.919 490.8C420.212 490.827 420.506 490.933 420.799 491.12C421.092 491.307 421.252 491.453 421.279 491.56C421.492 492.253 421.626 492.947 421.679 493.64C421.759 494.333 421.799 494.907 421.799 495.36ZM419.999 494.64C419.999 494.24 419.959 493.827 419.879 493.4C419.799 492.947 419.639 492.493 419.399 492.04C419.346 492.067 419.279 492.08 419.199 492.08C419.092 492.08 418.999 492.067 418.919 492.04C418.866 492.013 418.812 492 418.759 492C418.439 492 418.186 492.093 417.999 492.28C417.812 492.44 417.666 492.667 417.559 492.96C417.479 493.227 417.426 493.52 417.399 493.84C417.372 494.16 417.359 494.467 417.359 494.76C417.359 495.053 417.372 495.387 417.399 495.76C417.426 496.107 417.479 496.44 417.559 496.76C417.666 497.08 417.799 497.36 417.959 497.6C418.119 497.813 418.332 497.92 418.599 497.92C418.866 497.92 419.092 497.787 419.279 497.52C419.466 497.227 419.612 496.893 419.719 496.52C419.826 496.147 419.892 495.787 419.919 495.44C419.972 495.067 419.999 494.8 419.999 494.64ZM438.93 475.32C438.957 475.373 438.97 475.467 438.97 475.6C438.97 475.733 438.97 475.88 438.97 476.04C438.97 476.227 438.903 476.32 438.77 476.32C438.717 476.32 438.65 476.307 438.57 476.28C438.49 476.253 438.423 476.227 438.37 476.2C437.89 475.987 437.303 475.72 436.61 475.4C435.943 475.053 435.183 474.88 434.33 474.88C433.37 474.88 432.597 475.24 432.01 475.96C431.423 476.68 430.97 477.52 430.65 478.48C430.357 479.413 430.157 480.333 430.05 481.24C429.97 482.147 429.93 482.8 429.93 483.2C429.93 483.493 429.97 483.96 430.05 484.6C430.157 485.213 430.29 485.853 430.45 486.52C430.61 487.187 430.797 487.8 431.01 488.36C431.223 488.893 431.437 489.227 431.65 489.36C431.81 489.36 432.09 489.347 432.49 489.32C432.917 489.293 433.263 489.28 433.53 489.28C433.983 489.28 434.41 489.32 434.81 489.4C435.21 489.48 435.623 489.52 436.05 489.52C436.157 489.52 436.317 489.52 436.53 489.52C436.743 489.52 436.957 489.533 437.17 489.56C437.41 489.587 437.61 489.64 437.77 489.72C437.93 489.773 438.01 489.853 438.01 489.96C438.01 490.093 437.917 490.213 437.73 490.32C437.543 490.427 437.33 490.52 437.09 490.6C436.85 490.653 436.61 490.693 436.37 490.72C436.13 490.747 435.943 490.76 435.81 490.76C435.677 490.76 435.503 490.76 435.29 490.76C435.077 490.733 434.837 490.707 434.57 490.68C434.33 490.653 434.09 490.64 433.85 490.64C433.637 490.613 433.45 490.6 433.29 490.6C432.863 490.6 432.597 490.653 432.49 490.76C432.41 490.84 432.37 491.013 432.37 491.28C432.37 491.68 432.543 492.227 432.89 492.92C433.263 493.587 433.663 494.307 434.09 495.08C434.517 495.853 434.903 496.653 435.25 497.48C435.623 498.307 435.81 499.067 435.81 499.76C435.81 499.893 435.77 500.147 435.69 500.52C435.637 500.867 435.543 501.227 435.41 501.6C435.303 501.973 435.143 502.307 434.93 502.6C434.717 502.893 434.477 503.04 434.21 503.04C433.997 503.04 433.797 502.987 433.61 502.88C433.45 502.747 433.37 502.533 433.37 502.24C433.37 501.813 433.477 501.413 433.69 501.04C433.93 500.667 434.05 500.267 434.05 499.84C434.05 499.627 433.943 499.267 433.73 498.76C433.543 498.253 433.303 497.693 433.01 497.08C432.717 496.44 432.397 495.773 432.05 495.08C431.703 494.387 431.37 493.76 431.05 493.2C430.757 492.613 430.503 492.133 430.29 491.76C430.077 491.387 429.957 491.187 429.93 491.16C429.397 491.347 428.85 491.533 428.29 491.72C427.73 491.907 427.223 492.187 426.77 492.56C426.583 492.747 426.41 492.84 426.25 492.84C425.983 492.84 425.73 492.733 425.49 492.52C425.277 492.307 425.17 492.067 425.17 491.8C425.17 491.507 425.25 491.28 425.41 491.12C425.597 490.933 425.77 490.8 425.93 490.72C426.17 490.587 426.543 490.44 427.05 490.28C427.557 490.12 428.063 489.987 428.57 489.88C428.757 489.827 428.93 489.787 429.09 489.76C429.25 489.707 429.33 489.613 429.33 489.48C429.25 489.213 429.13 488.867 428.97 488.44C428.837 487.987 428.69 487.453 428.53 486.84C428.397 486.227 428.277 485.547 428.17 484.8C428.063 484.027 428.01 483.2 428.01 482.32C428.01 481.36 428.117 480.347 428.33 479.28C428.57 478.213 428.93 477.24 429.41 476.36C429.917 475.453 430.543 474.72 431.29 474.16C432.037 473.573 432.93 473.28 433.97 473.28C434.45 473.28 434.983 473.333 435.57 473.44C436.157 473.52 436.69 473.653 437.17 473.84C437.677 474 438.09 474.213 438.41 474.48C438.757 474.72 438.93 475 438.93 475.32ZM467.038 498.72C467.038 499.173 466.878 499.573 466.558 499.92C466.264 500.24 465.878 500.52 465.398 500.76C464.944 500.973 464.438 501.147 463.878 501.28C463.318 501.413 462.784 501.52 462.278 501.6C461.771 501.653 461.318 501.693 460.918 501.72C460.544 501.72 460.304 501.72 460.198 501.72C459.611 501.72 459.158 501.627 458.838 501.44C458.518 501.253 458.358 500.92 458.358 500.44C458.358 500.28 458.371 500.147 458.398 500.04C458.424 499.907 458.531 499.84 458.718 499.84C458.798 499.84 458.931 499.867 459.118 499.92C459.304 499.947 459.451 499.96 459.558 499.96C459.664 499.96 459.998 499.947 460.558 499.92C461.144 499.867 461.758 499.787 462.398 499.68C463.064 499.573 463.651 499.427 464.158 499.24C464.691 499.027 464.958 498.76 464.958 498.44C464.958 498.387 464.678 498.227 464.118 497.96C463.584 497.667 462.771 497.187 461.678 496.52C460.824 495.987 460.224 495.453 459.878 494.92C459.531 494.36 459.358 493.613 459.358 492.68C459.358 492.093 459.478 491.613 459.718 491.24C459.984 490.867 460.331 490.573 460.758 490.36C461.211 490.147 461.718 490 462.278 489.92C462.864 489.813 463.478 489.76 464.118 489.76C464.171 489.76 464.331 489.787 464.598 489.84C464.891 489.893 465.198 489.987 465.518 490.12C465.838 490.227 466.118 490.373 466.358 490.56C466.624 490.72 466.758 490.907 466.758 491.12C466.758 491.173 466.704 491.253 466.598 491.36C466.518 491.467 466.371 491.667 466.158 491.96C466.078 491.933 465.931 491.893 465.718 491.84C465.531 491.787 465.304 491.733 465.038 491.68C464.798 491.6 464.544 491.547 464.278 491.52C464.011 491.467 463.798 491.44 463.638 491.44C462.944 491.44 462.384 491.573 461.958 491.84C461.531 492.08 461.318 492.56 461.318 493.28C461.318 493.627 461.451 493.947 461.717 494.24C462.011 494.533 462.371 494.813 462.798 495.08C463.224 495.32 463.678 495.573 464.158 495.84C464.664 496.08 465.131 496.347 465.558 496.64C465.984 496.933 466.331 497.253 466.598 497.6C466.891 497.92 467.038 498.293 467.038 498.72ZM477.619 495.36C477.619 495.947 477.539 496.507 477.379 497.04C477.219 497.573 477.006 498.04 476.739 498.44C476.473 498.84 476.153 499.16 475.779 499.4C475.433 499.613 475.046 499.72 474.619 499.72C473.873 499.72 473.286 499.507 472.859 499.08C472.433 498.653 472.099 498.16 471.859 497.6C471.646 497.04 471.499 496.48 471.419 495.92C471.366 495.333 471.339 494.893 471.339 494.6C471.339 494.12 471.406 493.587 471.539 493C471.699 492.387 471.899 491.827 472.139 491.32C472.406 490.813 472.699 490.387 473.019 490.04C473.339 489.693 473.673 489.52 474.019 489.52C474.099 489.52 474.219 489.547 474.379 489.6C474.566 489.653 474.753 489.733 474.939 489.84C475.126 489.947 475.286 490.08 475.419 490.24C475.579 490.4 475.686 490.587 475.739 490.8C476.033 490.827 476.326 490.933 476.619 491.12C476.913 491.307 477.073 491.453 477.099 491.56C477.313 492.253 477.446 492.947 477.499 493.64C477.579 494.333 477.619 494.907 477.619 495.36ZM475.819 494.64C475.819 494.24 475.779 493.827 475.699 493.4C475.619 492.947 475.459 492.493 475.219 492.04C475.166 492.067 475.099 492.08 475.019 492.08C474.913 492.08 474.819 492.067 474.739 492.04C474.686 492.013 474.633 492 474.579 492C474.259 492 474.006 492.093 473.819 492.28C473.633 492.44 473.486 492.667 473.379 492.96C473.299 493.227 473.246 493.52 473.219 493.84C473.193 494.16 473.179 494.467 473.179 494.76C473.179 495.053 473.193 495.387 473.219 495.76C473.246 496.107 473.299 496.44 473.379 496.76C473.486 497.08 473.619 497.36 473.779 497.6C473.939 497.813 474.153 497.92 474.419 497.92C474.686 497.92 474.913 497.787 475.099 497.52C475.286 497.227 475.433 496.893 475.539 496.52C475.646 496.147 475.713 495.787 475.739 495.44C475.793 495.067 475.819 494.8 475.819 494.64ZM494.83 497.36C494.83 497.6 494.67 497.853 494.35 498.12C494.03 498.387 493.657 498.64 493.23 498.88C492.804 499.093 492.364 499.28 491.91 499.44C491.484 499.6 491.164 499.68 490.95 499.68C490.71 499.68 490.444 499.613 490.15 499.48C489.884 499.347 489.617 499.187 489.35 499C489.11 498.813 488.897 498.64 488.71 498.48C488.524 498.32 488.404 498.213 488.35 498.16C488.27 498.24 488.15 498.4 487.99 498.64C487.83 498.88 487.63 499.147 487.39 499.44C487.177 499.707 486.937 499.947 486.67 500.16C486.43 500.373 486.177 500.48 485.91 500.48C485.217 500.48 484.617 500.107 484.11 499.36C483.604 498.613 483.177 497.76 482.83 496.8C482.51 495.84 482.257 494.92 482.07 494.04C481.91 493.133 481.83 492.52 481.83 492.2C481.83 492.013 481.924 491.867 482.11 491.76C482.324 491.627 482.484 491.56 482.59 491.56C482.964 491.56 483.217 491.693 483.35 491.96C483.484 492.2 483.55 492.467 483.55 492.76C483.55 493 483.617 493.427 483.75 494.04C483.91 494.653 484.097 495.28 484.31 495.92C484.524 496.56 484.75 497.133 484.99 497.64C485.23 498.12 485.444 498.36 485.63 498.36C485.977 498.36 486.27 498.147 486.51 497.72C486.777 497.267 486.99 496.76 487.15 496.2C487.31 495.613 487.43 495.067 487.51 494.56C487.59 494.027 487.63 493.68 487.63 493.52C487.63 493.493 487.63 493.413 487.63 493.28C487.657 493.12 487.684 492.96 487.71 492.8C487.737 492.64 487.75 492.493 487.75 492.36C487.777 492.227 487.79 492.133 487.79 492.08C487.79 491.893 487.75 491.773 487.67 491.72C487.59 491.64 487.55 491.493 487.55 491.28C487.55 491.12 487.63 490.973 487.79 490.84C487.95 490.68 488.297 490.6 488.83 490.6C489.044 490.6 489.204 490.667 489.31 490.8C489.444 490.907 489.537 491.04 489.59 491.2C489.644 491.36 489.67 491.52 489.67 491.68C489.697 491.813 489.71 491.907 489.71 491.96C489.71 491.987 489.697 492.173 489.67 492.52C489.644 492.867 489.617 493.253 489.59 493.68C489.59 494.08 489.577 494.467 489.55 494.84C489.524 495.213 489.51 495.44 489.51 495.52C489.51 495.6 489.55 495.76 489.63 496C489.71 496.24 489.804 496.493 489.91 496.76C490.044 497 490.19 497.227 490.35 497.44C490.51 497.627 490.684 497.72 490.87 497.72C491.19 497.72 491.484 497.68 491.75 497.6C492.044 497.493 492.31 497.387 492.55 497.28C492.817 497.147 493.057 497.04 493.27 496.96C493.484 496.853 493.684 496.8 493.87 496.8C494.11 496.8 494.324 496.853 494.51 496.96C494.724 497.067 494.83 497.2 494.83 497.36ZM508.436 499.08C508.436 499.24 508.383 499.4 508.276 499.56C508.169 499.72 508.036 499.867 507.876 500C507.743 500.133 507.583 500.253 507.396 500.36C507.236 500.44 507.089 500.48 506.956 500.48C506.503 500.48 505.916 500.387 505.196 500.2C504.503 499.987 503.943 499.667 503.516 499.24C503.063 498.787 502.663 498.253 502.316 497.64C501.969 497 501.583 496.067 501.156 494.84C500.863 496.013 500.516 497.173 500.116 498.32C499.743 499.467 499.129 500.52 498.276 501.48C498.223 501.533 498.143 501.56 498.036 501.56C497.849 501.56 497.649 501.467 497.436 501.28C497.223 501.093 497.116 500.907 497.116 500.72C497.116 500.533 497.089 500.107 497.036 499.44C497.009 498.747 496.969 497.987 496.916 497.16C496.863 496.307 496.809 495.453 496.756 494.6C496.729 493.72 496.716 493 496.716 492.44C496.716 492.173 496.729 491.827 496.756 491.4C496.783 490.947 496.863 490.56 496.996 490.24C497.023 490.187 497.116 490.08 497.276 489.92C497.463 489.76 497.663 489.68 497.876 489.68C498.063 489.68 498.169 489.8 498.196 490.04C498.223 490.28 498.236 490.547 498.236 490.84V497.16C498.236 497.293 498.249 497.48 498.276 497.72C498.329 497.96 498.396 498.133 498.476 498.24C498.769 497.6 499.036 496.853 499.276 496C499.543 495.12 499.796 494.293 500.036 493.52C500.276 492.72 500.516 492.053 500.756 491.52C500.996 490.96 501.236 490.68 501.476 490.68C501.743 490.68 501.956 490.733 502.116 490.84C502.276 490.947 502.409 491.16 502.516 491.48C502.649 492.253 502.756 492.947 502.836 493.56C502.916 494.147 503.009 494.68 503.116 495.16C503.249 495.64 503.423 496.093 503.636 496.52C503.876 496.92 504.196 497.293 504.596 497.64C504.969 497.987 505.383 498.24 505.836 498.4C506.316 498.56 506.729 498.64 507.076 498.64C507.236 498.64 507.409 498.613 507.596 498.56C507.783 498.48 507.916 498.44 507.996 498.44C508.103 498.44 508.196 498.533 508.276 498.72C508.383 498.907 508.436 499.027 508.436 499.08ZM521.818 497.56C521.818 497.693 521.752 497.827 521.618 497.96C521.512 498.067 521.445 498.187 521.418 498.32C521.418 498.613 521.472 498.893 521.578 499.16C521.712 499.427 521.778 499.747 521.778 500.12C521.778 500.467 521.672 500.64 521.458 500.64C521.192 500.64 520.992 500.68 520.858 500.76C520.752 500.813 520.552 500.867 520.258 500.92C520.098 500.92 519.925 500.773 519.738 500.48C519.632 500.347 519.538 500.187 519.458 500C519.458 499.973 519.378 500.027 519.218 500.16C519.085 500.293 518.845 500.453 518.498 500.64C518.178 500.8 517.725 500.96 517.138 501.12C516.578 501.253 515.858 501.32 514.978 501.32C514.232 501.32 513.578 501.16 513.018 500.84C512.458 500.493 511.992 500.053 511.618 499.52C511.272 498.987 511.005 498.387 510.818 497.72C510.658 497.027 510.578 496.333 510.578 495.64C510.578 495 510.645 494.4 510.778 493.84C510.938 493.253 511.152 492.747 511.418 492.32C511.685 491.867 512.018 491.507 512.418 491.24C512.818 490.973 513.285 490.84 513.818 490.84C514.325 490.84 514.832 491 515.338 491.32C515.845 491.64 516.298 491.987 516.698 492.36C517.098 492.733 517.418 493.08 517.658 493.4C517.925 493.693 518.058 493.84 518.058 493.84C517.685 491.76 517.352 489.88 517.058 488.2C516.925 487.48 516.792 486.773 516.658 486.08C516.552 485.36 516.445 484.72 516.338 484.16C516.232 483.6 516.138 483.133 516.058 482.76C516.005 482.36 515.978 482.12 515.978 482.04C515.952 481.88 515.925 481.6 515.898 481.2C515.872 480.773 515.845 480.333 515.818 479.88C515.792 479.427 515.765 479.013 515.738 478.64C515.712 478.267 515.685 478.027 515.658 477.92C515.578 477.653 515.472 477.32 515.338 476.92C515.232 476.52 515.178 476.293 515.178 476.24C515.178 476.107 515.245 475.947 515.378 475.76C515.512 475.547 515.685 475.44 515.898 475.44C516.058 475.44 516.205 475.453 516.338 475.48C516.472 475.507 516.592 475.587 516.698 475.72C516.805 475.853 516.898 476.067 516.978 476.36C517.085 476.627 517.178 477.013 517.258 477.52C517.285 477.787 517.365 478.293 517.498 479.04C517.632 479.787 517.765 480.6 517.898 481.48C518.032 482.36 518.165 483.2 518.298 484C518.432 484.8 518.525 485.387 518.578 485.76C518.712 486.773 518.885 487.88 519.098 489.08C519.338 490.253 519.578 491.387 519.818 492.48C520.058 493.573 520.298 494.547 520.538 495.4C520.778 496.227 520.992 496.787 521.178 497.08C521.232 497.187 521.338 497.267 521.498 497.32C521.658 497.347 521.765 497.427 521.818 497.56ZM518.858 498.36C518.832 498.28 518.658 497.947 518.338 497.36C518.045 496.747 517.658 496.093 517.178 495.4C516.725 494.68 516.205 494.04 515.618 493.48C515.058 492.92 514.512 492.64 513.978 492.64C513.525 492.64 513.152 492.987 512.858 493.68C512.592 494.373 512.458 495.173 512.458 496.08C512.458 497.093 512.752 497.907 513.338 498.52C513.952 499.133 514.632 499.44 515.378 499.44C516.018 499.44 516.685 499.333 517.378 499.12C518.072 498.907 518.565 498.653 518.858 498.36Z" fill="#4B3F72"/>
</svg>
