<svg width="40" height="42" viewBox="0 0 40 42" fill="none" xmlns="http://www.w3.org/2000/svg">
<g filter="url(#filter0_di)">
<path d="M34.6667 6H29.3333V2.66667C29.3333 1.19583 28.1375 0 26.6667 0H13.3333C11.8625 0 10.6667 1.19583 10.6667 2.66667V6H5.33333C4.59583 6 4 6.59583 4 7.33333V8.66667C4 8.85 4.15 9 4.33333 9H6.85L7.87917 30.7917C7.94583 32.2125 9.12083 33.3333 10.5417 33.3333H29.4583C30.8833 33.3333 32.0542 32.2167 32.1208 30.7917L33.15 9H35.6667C35.85 9 36 8.85 36 8.66667V7.33333C36 6.59583 35.4042 6 34.6667 6ZM26.3333 6H13.6667V3H26.3333V6Z" fill="#312669"/>
</g>
<defs>
<filter id="filter0_di" x="0" y="0" width="40" height="41.3333" filterUnits="userSpaceOnUse" color-interpolation-filters="sRGB">
<feFlood flood-opacity="0" result="BackgroundImageFix"/>
<feColorMatrix in="SourceAlpha" type="matrix" values="0 0 0 0 0 0 0 0 0 0 0 0 0 0 0 0 0 0 127 0" result="hardAlpha"/>
<feOffset dy="4"/>
<feGaussianBlur stdDeviation="2"/>
<feColorMatrix type="matrix" values="0 0 0 0 0 0 0 0 0 0 0 0 0 0 0 0 0 0 0.25 0"/>
<feBlend mode="normal" in2="BackgroundImageFix" result="effect1_dropShadow"/>
<feBlend mode="normal" in="SourceGraphic" in2="effect1_dropShadow" result="shape"/>
<feColorMatrix in="SourceAlpha" type="matrix" values="0 0 0 0 0 0 0 0 0 0 0 0 0 0 0 0 0 0 127 0" result="hardAlpha"/>
<feOffset dx="3" dy="4"/>
<feGaussianBlur stdDeviation="2"/>
<feComposite in2="hardAlpha" operator="arithmetic" k2="-1" k3="1"/>
<feColorMatrix type="matrix" values="0 0 0 0 0 0 0 0 0 0 0 0 0 0 0 0 0 0 0.25 0"/>
<feBlend mode="normal" in2="shape" result="effect2_innerShadow"/>
</filter>
</defs>
</svg>
